<mxfile host="app.diagrams.net" modified="2022-11-09T19:25:53.505Z" agent="5.0 (Windows NT 10.0; Win64; x64) AppleWebKit/537.36 (KHTML, like Gecko) Chrome/107.0.0.0 Safari/537.36 Edg/107.0.1418.35" etag="vfCipp3x7_Qgh5BoWVdK" version="20.5.2" type="github">
  <diagram id="C5RBs43oDa-KdzZeNtuy" name="Page-1">
    <mxGraphModel dx="1038" dy="539" grid="1" gridSize="10" guides="1" tooltips="1" connect="1" arrows="1" fold="1" page="1" pageScale="1" pageWidth="827" pageHeight="1169" math="0" shadow="0">
      <root>
        <mxCell id="WIyWlLk6GJQsqaUBKTNV-0" />
        <mxCell id="WIyWlLk6GJQsqaUBKTNV-1" parent="WIyWlLk6GJQsqaUBKTNV-0" />
        <mxCell id="AHvvxaR7__jQoDVLhSC6-11" style="edgeStyle=none;curved=1;rounded=0;orthogonalLoop=1;jettySize=auto;html=1;entryX=0.5;entryY=0;entryDx=0;entryDy=0;fontSize=12;endArrow=open;startSize=14;endSize=14;targetPerimeterSpacing=8;startArrow=none;" parent="WIyWlLk6GJQsqaUBKTNV-1" source="AHvvxaR7__jQoDVLhSC6-20" target="AHvvxaR7__jQoDVLhSC6-4" edge="1">
          <mxGeometry relative="1" as="geometry" />
        </mxCell>
        <mxCell id="AHvvxaR7__jQoDVLhSC6-30" style="edgeStyle=none;curved=1;rounded=0;orthogonalLoop=1;jettySize=auto;html=1;entryX=0.5;entryY=1;entryDx=0;entryDy=0;fontSize=12;endArrow=open;startSize=14;endSize=14;targetPerimeterSpacing=8;startArrow=none;" parent="WIyWlLk6GJQsqaUBKTNV-1" source="AHvvxaR7__jQoDVLhSC6-31" target="zkfFHV4jXpPFQw0GAbJ--17" edge="1">
          <mxGeometry relative="1" as="geometry" />
        </mxCell>
        <mxCell id="AHvvxaR7__jQoDVLhSC6-70" style="edgeStyle=none;curved=1;rounded=0;orthogonalLoop=1;jettySize=auto;html=1;entryX=1;entryY=1;entryDx=0;entryDy=0;fontSize=12;endArrow=open;startSize=14;endSize=14;sourcePerimeterSpacing=8;targetPerimeterSpacing=8;" parent="WIyWlLk6GJQsqaUBKTNV-1" source="zkfFHV4jXpPFQw0GAbJ--17" target="AHvvxaR7__jQoDVLhSC6-67" edge="1">
          <mxGeometry relative="1" as="geometry">
            <Array as="points">
              <mxPoint x="650" y="390" />
            </Array>
          </mxGeometry>
        </mxCell>
        <mxCell id="zkfFHV4jXpPFQw0GAbJ--17" value="Producto Subastado" style="swimlane;fontStyle=0;align=center;verticalAlign=top;childLayout=stackLayout;horizontal=1;startSize=26;horizontalStack=0;resizeParent=1;resizeLast=0;collapsible=1;marginBottom=0;rounded=0;shadow=0;strokeWidth=1;" parent="WIyWlLk6GJQsqaUBKTNV-1" vertex="1">
          <mxGeometry x="310" y="336.83" width="160" height="293.0851860787519" as="geometry">
            <mxRectangle x="550" y="140" width="160" height="26" as="alternateBounds" />
          </mxGeometry>
        </mxCell>
        <mxCell id="zkfFHV4jXpPFQw0GAbJ--18" value="codSubasta" style="text;align=left;verticalAlign=top;spacingLeft=4;spacingRight=4;overflow=hidden;rotatable=0;points=[[0,0.5],[1,0.5]];portConstraint=eastwest;" parent="zkfFHV4jXpPFQw0GAbJ--17" vertex="1">
          <mxGeometry y="26" width="160" height="26" as="geometry" />
        </mxCell>
        <mxCell id="AHvvxaR7__jQoDVLhSC6-24" value="" style="shape=stencil(rVjbbtswDP2avBK6ktJz1/1HgaZLsKwp0uz296NnSLXo+AQD9uY4pHg7PKS8iw/vh6e3/S649+vl/HX/8/h8Pezip10Ix9fD/nK86tMuPu7iw8v5sv9yOX9/fZ5/vz1NktPTt/OP6YRfs16gUCel4H7PL7wncX/ffJ7lT8fXhTxTCqO8o1S25X2gnAcFplyBPFMcDSSqQD44yjLIRyrA/5ApuEE+UI1AvjbzH/I+bMvHRGWM11PIQL4SmwKQA/6nRHH031EB/qdCHI18TtvyWetlz0f+ZCbHRt4zkK/ki/UH4Ic13mTyIyCfXEjG83M74Ka8BCojfioJ8F+Y2PgTKQBAFEdhLIAXqsCjkkjGDlDIFeBSKZRGlzQGD3JUvcV0DDDoyq3Hu0JqNm8rCLEfFRi2QV3BNHmKHihUSqOFVMkBolCFYoBRYNDedeR36qr3fJKxEKLdjaLWOo1Ray0ZBVFaFjtaMyWBhTDtpjYj6GcttQtWQZAF5WejwJCRaqRqOs5BylaFMMZQ+tS6rdApvdchNNbfVBgLxx5OKXXJTKnsIY1plkxaUySPLGhaTcsJRZRWbvBf9CiMQSiMQUedjajSpaG/K9zB0orrEzebmw00DpOs7I22hRs9mjFca+PSjg2+F0Qc4VoyFdyjZiNRtGREG2JXpCnTyAJb7lvk4X9pBIvwKS40tkpD2yJslFidc5xtYhkgXCepGdVS4BQSoTRaEDznJNrByEwVlE7W8HNwXdXz3EhNGXepEpHJUqpwRGjHGC5LGQY9bXxmkia4Mk0rpXEpwo6YzluRX0FLdG073sIltNEoc5k6aNAegC+6dl5XEHLAwrRGiq2DA2nVvdbEkDE09OaTzUwJjUm2rlaWLSMx2qVbAy+xB8oQLGkotlAVPJXV+Wj98fYqowGjbus3nUVGHQCqs3vxNH4AKPrNZbGDMsiPWl8tuahgK7KIHo50126afa9neNVwFqKaYVRfZ9dVvZmgQeXt1dnrLQD4rzc1c/NRRKGW+cdvEffl9eHjw8fL8XSav5ss/7cfSvTV/JElPv4B);lineShape=1;fontSize=16;" parent="zkfFHV4jXpPFQw0GAbJ--17" vertex="1">
          <mxGeometry y="52" width="160" height="7.08518607875194" as="geometry" />
        </mxCell>
        <mxCell id="zkfFHV4jXpPFQw0GAbJ--19" value="nombre" style="text;align=left;verticalAlign=top;spacingLeft=4;spacingRight=4;overflow=hidden;rotatable=0;points=[[0,0.5],[1,0.5]];portConstraint=eastwest;rounded=0;shadow=0;html=0;" parent="zkfFHV4jXpPFQw0GAbJ--17" vertex="1">
          <mxGeometry y="59.08518607875194" width="160" height="26" as="geometry" />
        </mxCell>
        <mxCell id="zkfFHV4jXpPFQw0GAbJ--20" value="precio" style="text;align=left;verticalAlign=top;spacingLeft=4;spacingRight=4;overflow=hidden;rotatable=0;points=[[0,0.5],[1,0.5]];portConstraint=eastwest;rounded=0;shadow=0;html=0;" parent="zkfFHV4jXpPFQw0GAbJ--17" vertex="1">
          <mxGeometry y="85.08518607875195" width="160" height="26" as="geometry" />
        </mxCell>
        <mxCell id="zkfFHV4jXpPFQw0GAbJ--21" value="codUsuario" style="text;align=left;verticalAlign=top;spacingLeft=4;spacingRight=4;overflow=hidden;rotatable=0;points=[[0,0.5],[1,0.5]];portConstraint=eastwest;rounded=0;shadow=0;html=0;" parent="zkfFHV4jXpPFQw0GAbJ--17" vertex="1">
          <mxGeometry y="111.08518607875195" width="160" height="26" as="geometry" />
        </mxCell>
        <mxCell id="zkfFHV4jXpPFQw0GAbJ--22" value="categoria" style="text;align=left;verticalAlign=top;spacingLeft=4;spacingRight=4;overflow=hidden;rotatable=0;points=[[0,0.5],[1,0.5]];portConstraint=eastwest;rounded=0;shadow=0;html=0;" parent="zkfFHV4jXpPFQw0GAbJ--17" vertex="1">
          <mxGeometry y="137.08518607875195" width="160" height="26" as="geometry" />
        </mxCell>
        <mxCell id="zkfFHV4jXpPFQw0GAbJ--24" value="descripcion" style="text;align=left;verticalAlign=top;spacingLeft=4;spacingRight=4;overflow=hidden;rotatable=0;points=[[0,0.5],[1,0.5]];portConstraint=eastwest;" parent="zkfFHV4jXpPFQw0GAbJ--17" vertex="1">
          <mxGeometry y="163.08518607875195" width="160" height="26" as="geometry" />
        </mxCell>
        <mxCell id="gHI2CfWQXYoVdtYrl61a-0" value="fechaInicio" style="text;align=left;verticalAlign=top;spacingLeft=4;spacingRight=4;overflow=hidden;rotatable=0;points=[[0,0.5],[1,0.5]];portConstraint=eastwest;" vertex="1" parent="zkfFHV4jXpPFQw0GAbJ--17">
          <mxGeometry y="189.08518607875195" width="160" height="26" as="geometry" />
        </mxCell>
        <mxCell id="gHI2CfWQXYoVdtYrl61a-1" value="fechaFin" style="text;align=left;verticalAlign=top;spacingLeft=4;spacingRight=4;overflow=hidden;rotatable=0;points=[[0,0.5],[1,0.5]];portConstraint=eastwest;" vertex="1" parent="zkfFHV4jXpPFQw0GAbJ--17">
          <mxGeometry y="215.08518607875195" width="160" height="26" as="geometry" />
        </mxCell>
        <mxCell id="gHI2CfWQXYoVdtYrl61a-2" value="estado" style="text;align=left;verticalAlign=top;spacingLeft=4;spacingRight=4;overflow=hidden;rotatable=0;points=[[0,0.5],[1,0.5]];portConstraint=eastwest;" vertex="1" parent="zkfFHV4jXpPFQw0GAbJ--17">
          <mxGeometry y="241.08518607875195" width="160" height="26" as="geometry" />
        </mxCell>
        <mxCell id="gHI2CfWQXYoVdtYrl61a-4" value="dineroInvertir" style="text;align=left;verticalAlign=top;spacingLeft=4;spacingRight=4;overflow=hidden;rotatable=0;points=[[0,0.5],[1,0.5]];portConstraint=eastwest;" vertex="1" parent="zkfFHV4jXpPFQw0GAbJ--17">
          <mxGeometry y="267.0851860787519" width="160" height="26" as="geometry" />
        </mxCell>
        <mxCell id="AHvvxaR7__jQoDVLhSC6-4" value="Puja" style="swimlane;fontStyle=0;align=center;verticalAlign=top;childLayout=stackLayout;horizontal=1;startSize=26;horizontalStack=0;resizeParent=1;resizeLast=0;collapsible=1;marginBottom=0;rounded=0;shadow=0;strokeWidth=1;" parent="WIyWlLk6GJQsqaUBKTNV-1" vertex="1">
          <mxGeometry x="99" y="759.56" width="160" height="161.44415401359146" as="geometry">
            <mxRectangle x="550" y="140" width="160" height="26" as="alternateBounds" />
          </mxGeometry>
        </mxCell>
        <mxCell id="AHvvxaR7__jQoDVLhSC6-5" value="codPuja" style="text;align=left;verticalAlign=top;spacingLeft=4;spacingRight=4;overflow=hidden;rotatable=0;points=[[0,0.5],[1,0.5]];portConstraint=eastwest;" parent="AHvvxaR7__jQoDVLhSC6-4" vertex="1">
          <mxGeometry y="26" width="160" height="26" as="geometry" />
        </mxCell>
        <mxCell id="AHvvxaR7__jQoDVLhSC6-25" value="" style="shape=stencil(rVfZbttADPwavRLk3vucpv8RIE5t1LUDx+nx96WrrupdWlMX6Ju85kjkcHjs5B/etk+vm8nx2/l0/Lz5tns+byf/YXJud9huTruzPk3+cfIPL8fT5tPp+H54nn+/Pl0sL09fjl8vb/g+42qkXC4oxz/mk5yI06+TjzNgvztcA4SqGwG/T24CSqKYe0ChxOuAXCmmDlCYUgYAR76PoehJXAckDTr0AE/ZrwNiJTe4FKgUAHAUYg/Qb9Z1QMjkpAckEvCFIJQMIIAYfGycXAMAS642IVwDgDScJ1dHQAIuSSHHI6AGAHBUei2V2k5uS4NCT1LVT4KYI8WeI2EmBmJV3fTVUDOJAI5I2AQAdMFjwFodDGTBJH0AqvUCUqDR+c4+CkVQzUyx999nSoBQfVv/fqU4AQ35xvaSgEQF+BMo9/yoRBiVPqW+8kWoAH8KBTf6gwRUqQ7xLh7e5kfGgH1qlK0BBkYjkwcKVcDQilLAVclmJJSmkpWY41D2qlGg6TKGXBPUxNIIF/uF5RVNeFP0EdSMa+NosXdwGgi5PgM6PRjUvOant88MOzWP/MTUIlqxdz0/QbsMqBkhGTRayaO+TmGosQrHayDp54b41pX+i72Y0afxAr3ZMYN7up1jDPm3g5IbY3dOYrVHu4GJV7sw8MfuElrRIL92WRHIv92GHFwZ7brlm4N37nOhdZg7F0bt0YB/u5EW8mDrsCuvtkgGBWaXamG4pmgDLMPYEzj2dMvIQ8pCE8ltQBmbnBYxI5fq2FU0CxVNvjq65JU34NLVarUgNJNo/bMI1XoApWydihHPMhN20iiA+CyxKeNcm9Rd9I5cSu3msAAi7O//fqf7O0Af/lwhX3b7/XwDvf5/vHLq0Xxd9Y8/AQ==);lineShape=1;fontSize=16;" parent="AHvvxaR7__jQoDVLhSC6-4" vertex="1">
          <mxGeometry y="52" width="160" height="5.444154013591469" as="geometry" />
        </mxCell>
        <mxCell id="AHvvxaR7__jQoDVLhSC6-6" value="codProductoSubastado" style="text;align=left;verticalAlign=top;spacingLeft=4;spacingRight=4;overflow=hidden;rotatable=0;points=[[0,0.5],[1,0.5]];portConstraint=eastwest;rounded=0;shadow=0;html=0;" parent="AHvvxaR7__jQoDVLhSC6-4" vertex="1">
          <mxGeometry y="57.44415401359147" width="160" height="26" as="geometry" />
        </mxCell>
        <mxCell id="AHvvxaR7__jQoDVLhSC6-7" value="codPujador" style="text;align=left;verticalAlign=top;spacingLeft=4;spacingRight=4;overflow=hidden;rotatable=0;points=[[0,0.5],[1,0.5]];portConstraint=eastwest;rounded=0;shadow=0;html=0;" parent="AHvvxaR7__jQoDVLhSC6-4" vertex="1">
          <mxGeometry y="83.44415401359147" width="160" height="26" as="geometry" />
        </mxCell>
        <mxCell id="AHvvxaR7__jQoDVLhSC6-8" value="fecha" style="text;align=left;verticalAlign=top;spacingLeft=4;spacingRight=4;overflow=hidden;rotatable=0;points=[[0,0.5],[1,0.5]];portConstraint=eastwest;rounded=0;shadow=0;html=0;" parent="AHvvxaR7__jQoDVLhSC6-4" vertex="1">
          <mxGeometry y="109.44415401359147" width="160" height="26" as="geometry" />
        </mxCell>
        <mxCell id="gHI2CfWQXYoVdtYrl61a-19" value="importe" style="text;align=left;verticalAlign=top;spacingLeft=4;spacingRight=4;overflow=hidden;rotatable=0;points=[[0,0.5],[1,0.5]];portConstraint=eastwest;rounded=0;shadow=0;html=0;" vertex="1" parent="AHvvxaR7__jQoDVLhSC6-4">
          <mxGeometry y="135.44415401359146" width="160" height="26" as="geometry" />
        </mxCell>
        <mxCell id="AHvvxaR7__jQoDVLhSC6-14" value="1-N" style="text;html=1;align=center;verticalAlign=middle;resizable=0;points=[];autosize=1;strokeColor=none;fillColor=none;fontSize=16;" parent="WIyWlLk6GJQsqaUBKTNV-1" vertex="1">
          <mxGeometry x="250" y="468.37" width="50" height="30" as="geometry" />
        </mxCell>
        <mxCell id="AHvvxaR7__jQoDVLhSC6-15" value="DIAGRAMA ENTIDAD RELACION" style="text;html=1;align=center;verticalAlign=middle;resizable=0;points=[];autosize=1;strokeColor=none;fillColor=none;fontSize=16;" parent="WIyWlLk6GJQsqaUBKTNV-1" vertex="1">
          <mxGeometry x="279" y="60" width="270" height="30" as="geometry" />
        </mxCell>
        <mxCell id="AHvvxaR7__jQoDVLhSC6-31" value="crea" style="rhombus;whiteSpace=wrap;html=1;fontSize=16;" parent="WIyWlLk6GJQsqaUBKTNV-1" vertex="1">
          <mxGeometry x="590" y="626.8299999999999" width="80" height="80" as="geometry" />
        </mxCell>
        <mxCell id="AHvvxaR7__jQoDVLhSC6-32" value="" style="edgeStyle=none;curved=1;rounded=0;orthogonalLoop=1;jettySize=auto;html=1;entryX=0.5;entryY=1;entryDx=0;entryDy=0;fontSize=12;endArrow=none;startSize=14;endSize=14;sourcePerimeterSpacing=8;" parent="WIyWlLk6GJQsqaUBKTNV-1" source="zkfFHV4jXpPFQw0GAbJ--6" target="AHvvxaR7__jQoDVLhSC6-31" edge="1">
          <mxGeometry relative="1" as="geometry">
            <mxPoint x="502" y="753.9148936170213" as="sourcePoint" />
            <mxPoint x="649" y="560" as="targetPoint" />
          </mxGeometry>
        </mxCell>
        <mxCell id="AHvvxaR7__jQoDVLhSC6-35" value="1-N" style="text;html=1;align=center;verticalAlign=middle;resizable=0;points=[];autosize=1;strokeColor=none;fillColor=none;fontSize=16;" parent="WIyWlLk6GJQsqaUBKTNV-1" vertex="1">
          <mxGeometry x="583.3" y="730" width="50" height="30" as="geometry" />
        </mxCell>
        <mxCell id="AHvvxaR7__jQoDVLhSC6-37" value="" style="group" parent="WIyWlLk6GJQsqaUBKTNV-1" vertex="1" connectable="0">
          <mxGeometry x="550" y="770" width="160" height="220" as="geometry" />
        </mxCell>
        <mxCell id="zkfFHV4jXpPFQw0GAbJ--6" value="Usuario" style="swimlane;fontStyle=0;align=center;verticalAlign=top;childLayout=stackLayout;horizontal=1;startSize=26;horizontalStack=0;resizeParent=1;resizeLast=0;collapsible=1;marginBottom=0;rounded=0;shadow=0;strokeWidth=1;" parent="AHvvxaR7__jQoDVLhSC6-37" vertex="1">
          <mxGeometry width="160" height="220" as="geometry">
            <mxRectangle x="130" y="380" width="160" height="26" as="alternateBounds" />
          </mxGeometry>
        </mxCell>
        <mxCell id="zkfFHV4jXpPFQw0GAbJ--7" value="codUsuario" style="text;align=left;verticalAlign=top;spacingLeft=4;spacingRight=4;overflow=hidden;rotatable=0;points=[[0,0.5],[1,0.5]];portConstraint=eastwest;" parent="zkfFHV4jXpPFQw0GAbJ--6" vertex="1">
          <mxGeometry y="26" width="160" height="26" as="geometry" />
        </mxCell>
        <mxCell id="zkfFHV4jXpPFQw0GAbJ--8" value="nickname" style="text;align=left;verticalAlign=top;spacingLeft=4;spacingRight=4;overflow=hidden;rotatable=0;points=[[0,0.5],[1,0.5]];portConstraint=eastwest;rounded=0;shadow=0;html=0;" parent="zkfFHV4jXpPFQw0GAbJ--6" vertex="1">
          <mxGeometry y="52" width="160" height="26" as="geometry" />
        </mxCell>
        <mxCell id="zkfFHV4jXpPFQw0GAbJ--11" value="nombre" style="text;align=left;verticalAlign=top;spacingLeft=4;spacingRight=4;overflow=hidden;rotatable=0;points=[[0,0.5],[1,0.5]];portConstraint=eastwest;" parent="zkfFHV4jXpPFQw0GAbJ--6" vertex="1">
          <mxGeometry y="78" width="160" height="26" as="geometry" />
        </mxCell>
        <mxCell id="AHvvxaR7__jQoDVLhSC6-29" value="apellidos" style="text;align=left;verticalAlign=top;spacingLeft=4;spacingRight=4;overflow=hidden;rotatable=0;points=[[0,0.5],[1,0.5]];portConstraint=eastwest;" parent="zkfFHV4jXpPFQw0GAbJ--6" vertex="1">
          <mxGeometry y="104" width="160" height="26" as="geometry" />
        </mxCell>
        <mxCell id="AHvvxaR7__jQoDVLhSC6-26" value="direccion?" style="text;align=left;verticalAlign=top;spacingLeft=4;spacingRight=4;overflow=hidden;rotatable=0;points=[[0,0.5],[1,0.5]];portConstraint=eastwest;" parent="zkfFHV4jXpPFQw0GAbJ--6" vertex="1">
          <mxGeometry y="130" width="160" height="26" as="geometry" />
        </mxCell>
        <mxCell id="AHvvxaR7__jQoDVLhSC6-27" value="email" style="text;align=left;verticalAlign=top;spacingLeft=4;spacingRight=4;overflow=hidden;rotatable=0;points=[[0,0.5],[1,0.5]];portConstraint=eastwest;" parent="zkfFHV4jXpPFQw0GAbJ--6" vertex="1">
          <mxGeometry y="156" width="160" height="30" as="geometry" />
        </mxCell>
        <mxCell id="AHvvxaR7__jQoDVLhSC6-28" value="contraseña" style="text;align=left;verticalAlign=top;spacingLeft=4;spacingRight=4;overflow=hidden;rotatable=0;points=[[0,0.5],[1,0.5]];portConstraint=eastwest;" parent="zkfFHV4jXpPFQw0GAbJ--6" vertex="1">
          <mxGeometry y="186" width="160" height="30" as="geometry" />
        </mxCell>
        <mxCell id="AHvvxaR7__jQoDVLhSC6-36" value="" style="shape=stencil(lVjLciIxDPwarirLT/mczf5HqkIWallIEfb196tZygOWmQ7cyEQ9Y0vdLdmr8PSxeXlfr7z7OB0P39e/t6+nzSp8WXm/3W/Wx+1Jf63C8yo8vR2O62/Hw8/96/nv95cpcvr14/BresOfMy4Quwnk3d/zA0eu/n/w9Ry+2+6vwhOV3IUHCrwcXimWLjxTjMvh7Kn2q2GmBN7PhXz/AU6U8zLAMwUDqPALumPOFhAcAMzvmwFCUZYBIZDUHlCogCwFIVcsABUtMokBaB0QIFESm9ZaAKC2910BEgCkSG74QgwAoJX2PSBS8suA7IZKM2WQ1hwo9pWWRq7b8YVqNFpwYEGFKRpiUEkgPpLY+AyYWnQ9pgaUwH7FUzQZpQiILZl8NPEM1iOVajLWImC/NbfXXeIzYEQtFPr3z+5xO16sGc3udDtedR6s8pG3KECMOXqYUXZqtr3fxdw2tfSJ0q9Jae4wwOis+PZkKUvcs0K4OeBS2UyZ5ZM9qEP3PJUCiVSjLZxo10FLCs1K5k0naMHVUzZ9KuK+5sn3pU5M7iFAyNBRxyWpvWS0h2HT2k1RZxvTGrHehrqpntGCBmJg/x2Zl0lQ/EDtqUmhDQzi8aUt8W598oMWkBI07dFksmD1DC5WhNJDNimpzXx3+rDqMyCqPgxQRxEL8KB16r+jAWD1qEGYUisgg4mn1NYrrwDIMkq2cpsAqJ3rpF0sIAEuKRGKt1lKoHDqWb5na8UOkLn1jhmQoOR0CMv9kpSOSHI3xryLpu6cJC+aunNWVUBEgGEanjbx0LytgIAAw0SvIkTsm84MpnIZ5tUne2yr2PumWarXqPYLpFE9IaShrRcgCA62cDo4CJonSUyTZqiH1Kbr2Sk1CaAKnkLPCx2VkKK5Hbpm6xbYD9keDNXqGRiAsw09OfJAna4dM+feE1uDXIg3LA3YVIfepiysOL6vr2YY9XM3jM+pHWgW4othKAznlrw5nXAAm7l4NYwA+vt2T3F1LQK4/OAtyqfh+uNyYfO23e3O9z3X/7cXPProfDkUnv8B);lineShape=1;fontSize=16;" parent="AHvvxaR7__jQoDVLhSC6-37" vertex="1">
          <mxGeometry x="7.8234010071412285" y="49.43382548290788" width="64.91116733942381" height="5.832596917338378" as="geometry" />
        </mxCell>
        <mxCell id="AHvvxaR7__jQoDVLhSC6-38" style="edgeStyle=none;curved=1;rounded=0;orthogonalLoop=1;jettySize=auto;html=1;entryX=1;entryY=0.5;entryDx=0;entryDy=0;fontSize=12;endArrow=open;startSize=14;endSize=14;targetPerimeterSpacing=8;startArrow=none;" parent="WIyWlLk6GJQsqaUBKTNV-1" source="AHvvxaR7__jQoDVLhSC6-39" target="AHvvxaR7__jQoDVLhSC6-6" edge="1">
          <mxGeometry relative="1" as="geometry" />
        </mxCell>
        <mxCell id="AHvvxaR7__jQoDVLhSC6-40" value="n-1" style="text;html=1;align=center;verticalAlign=middle;resizable=0;points=[];autosize=1;strokeColor=none;fillColor=none;fontSize=16;" parent="WIyWlLk6GJQsqaUBKTNV-1" vertex="1">
          <mxGeometry x="490" y="865" width="50" height="30" as="geometry" />
        </mxCell>
        <mxCell id="AHvvxaR7__jQoDVLhSC6-20" value="contiene" style="rhombus;whiteSpace=wrap;html=1;fontSize=16;" parent="WIyWlLk6GJQsqaUBKTNV-1" vertex="1">
          <mxGeometry x="140" y="549.92" width="101" height="80" as="geometry" />
        </mxCell>
        <mxCell id="AHvvxaR7__jQoDVLhSC6-41" value="" style="edgeStyle=none;curved=1;rounded=0;orthogonalLoop=1;jettySize=auto;html=1;entryX=0.5;entryY=0;entryDx=0;entryDy=0;fontSize=12;endArrow=none;startSize=14;endSize=14;sourcePerimeterSpacing=8;exitX=0;exitY=0.5;exitDx=0;exitDy=0;" parent="WIyWlLk6GJQsqaUBKTNV-1" source="zkfFHV4jXpPFQw0GAbJ--22" target="AHvvxaR7__jQoDVLhSC6-20" edge="1">
          <mxGeometry relative="1" as="geometry">
            <mxPoint x="179" y="544" as="sourcePoint" />
            <mxPoint x="92.38" y="712.28" as="targetPoint" />
          </mxGeometry>
        </mxCell>
        <mxCell id="AHvvxaR7__jQoDVLhSC6-39" value="realiza" style="rhombus;whiteSpace=wrap;html=1;fontSize=16;" parent="WIyWlLk6GJQsqaUBKTNV-1" vertex="1">
          <mxGeometry x="350" y="800" width="80" height="80" as="geometry" />
        </mxCell>
        <mxCell id="AHvvxaR7__jQoDVLhSC6-43" value="" style="edgeStyle=none;curved=1;rounded=0;orthogonalLoop=1;jettySize=auto;html=1;entryX=1;entryY=0.5;entryDx=0;entryDy=0;fontSize=12;endArrow=none;startSize=14;endSize=14;sourcePerimeterSpacing=8;" parent="WIyWlLk6GJQsqaUBKTNV-1" source="zkfFHV4jXpPFQw0GAbJ--6" target="AHvvxaR7__jQoDVLhSC6-39" edge="1">
          <mxGeometry relative="1" as="geometry">
            <mxPoint x="542.0000000000002" y="861.293924114322" as="sourcePoint" />
            <mxPoint x="172.3800000000001" y="782.7241540135915" as="targetPoint" />
          </mxGeometry>
        </mxCell>
        <mxCell id="AHvvxaR7__jQoDVLhSC6-44" value="" style="group" parent="WIyWlLk6GJQsqaUBKTNV-1" vertex="1" connectable="0">
          <mxGeometry x="550" y="1270" width="160" height="220" as="geometry" />
        </mxCell>
        <mxCell id="AHvvxaR7__jQoDVLhSC6-45" value="MensajeEnviado" style="swimlane;fontStyle=0;align=center;verticalAlign=top;childLayout=stackLayout;horizontal=1;startSize=26;horizontalStack=0;resizeParent=1;resizeLast=0;collapsible=1;marginBottom=0;rounded=0;shadow=0;strokeWidth=1;" parent="AHvvxaR7__jQoDVLhSC6-44" vertex="1">
          <mxGeometry width="160" height="220" as="geometry">
            <mxRectangle x="130" y="380" width="160" height="26" as="alternateBounds" />
          </mxGeometry>
        </mxCell>
        <mxCell id="AHvvxaR7__jQoDVLhSC6-46" value="codMensaje" style="text;align=left;verticalAlign=top;spacingLeft=4;spacingRight=4;overflow=hidden;rotatable=0;points=[[0,0.5],[1,0.5]];portConstraint=eastwest;" parent="AHvvxaR7__jQoDVLhSC6-45" vertex="1">
          <mxGeometry y="26" width="160" height="26" as="geometry" />
        </mxCell>
        <mxCell id="AHvvxaR7__jQoDVLhSC6-47" value="codUsuarioEmisor" style="text;align=left;verticalAlign=top;spacingLeft=4;spacingRight=4;overflow=hidden;rotatable=0;points=[[0,0.5],[1,0.5]];portConstraint=eastwest;rounded=0;shadow=0;html=0;" parent="AHvvxaR7__jQoDVLhSC6-45" vertex="1">
          <mxGeometry y="52" width="160" height="26" as="geometry" />
        </mxCell>
        <mxCell id="AHvvxaR7__jQoDVLhSC6-48" value="codUsuarioReceptor" style="text;align=left;verticalAlign=top;spacingLeft=4;spacingRight=4;overflow=hidden;rotatable=0;points=[[0,0.5],[1,0.5]];portConstraint=eastwest;" parent="AHvvxaR7__jQoDVLhSC6-45" vertex="1">
          <mxGeometry y="78" width="160" height="26" as="geometry" />
        </mxCell>
        <mxCell id="AHvvxaR7__jQoDVLhSC6-49" value="asunto" style="text;align=left;verticalAlign=top;spacingLeft=4;spacingRight=4;overflow=hidden;rotatable=0;points=[[0,0.5],[1,0.5]];portConstraint=eastwest;" parent="AHvvxaR7__jQoDVLhSC6-45" vertex="1">
          <mxGeometry y="104" width="160" height="26" as="geometry" />
        </mxCell>
        <mxCell id="AHvvxaR7__jQoDVLhSC6-50" value="mensaje" style="text;align=left;verticalAlign=top;spacingLeft=4;spacingRight=4;overflow=hidden;rotatable=0;points=[[0,0.5],[1,0.5]];portConstraint=eastwest;" parent="AHvvxaR7__jQoDVLhSC6-45" vertex="1">
          <mxGeometry y="130" width="160" height="26" as="geometry" />
        </mxCell>
        <mxCell id="AHvvxaR7__jQoDVLhSC6-51" value="estado" style="text;align=left;verticalAlign=top;spacingLeft=4;spacingRight=4;overflow=hidden;rotatable=0;points=[[0,0.5],[1,0.5]];portConstraint=eastwest;" parent="AHvvxaR7__jQoDVLhSC6-45" vertex="1">
          <mxGeometry y="156" width="160" height="30" as="geometry" />
        </mxCell>
        <mxCell id="AHvvxaR7__jQoDVLhSC6-52" value="fecha" style="text;align=left;verticalAlign=top;spacingLeft=4;spacingRight=4;overflow=hidden;rotatable=0;points=[[0,0.5],[1,0.5]];portConstraint=eastwest;" parent="AHvvxaR7__jQoDVLhSC6-45" vertex="1">
          <mxGeometry y="186" width="160" height="30" as="geometry" />
        </mxCell>
        <mxCell id="AHvvxaR7__jQoDVLhSC6-53" value="" style="shape=stencil(lVjLciIxDPwarirLT/mczf5HqkIWallIEfb196tZygOWmQ7cyEQ9Y0vdLdmr8PSxeXlfr7z7OB0P39e/t6+nzSp8WXm/3W/Wx+1Jf63C8yo8vR2O62/Hw8/96/nv95cpcvr14/BresOfMy4Quwnk3d/zA0eu/n/w9Ry+2+6vwhOV3IUHCrwcXimWLjxTjMvh7Kn2q2GmBN7PhXz/AU6U8zLAMwUDqPALumPOFhAcAMzvmwFCUZYBIZDUHlCogCwFIVcsABUtMokBaB0QIFESm9ZaAKC2910BEgCkSG74QgwAoJX2PSBS8suA7IZKM2WQ1hwo9pWWRq7b8YVqNFpwYEGFKRpiUEkgPpLY+AyYWnQ9pgaUwH7FUzQZpQiILZl8NPEM1iOVajLWImC/NbfXXeIzYEQtFPr3z+5xO16sGc3udDtedR6s8pG3KECMOXqYUXZqtr3fxdw2tfSJ0q9Jae4wwOis+PZkKUvcs0K4OeBS2UyZ5ZM9qEP3PJUCiVSjLZxo10FLCs1K5k0naMHVUzZ9KuK+5sn3pU5M7iFAyNBRxyWpvWS0h2HT2k1RZxvTGrHehrqpntGCBmJg/x2Zl0lQ/EDtqUmhDQzi8aUt8W598oMWkBI07dFksmD1DC5WhNJDNimpzXx3+rDqMyCqPgxQRxEL8KB16r+jAWD1qEGYUisgg4mn1NYrrwDIMkq2cpsAqJ3rpF0sIAEuKRGKt1lKoHDqWb5na8UOkLn1jhmQoOR0CMv9kpSOSHI3xryLpu6cJC+aunNWVUBEgGEanjbx0LytgIAAw0SvIkTsm84MpnIZ5tUne2yr2PumWarXqPYLpFE9IaShrRcgCA62cDo4CJonSUyTZqiH1Kbr2Sk1CaAKnkLPCx2VkKK5Hbpm6xbYD9keDNXqGRiAsw09OfJAna4dM+feE1uDXIg3LA3YVIfepiysOL6vr2YY9XM3jM+pHWgW4othKAznlrw5nXAAm7l4NYwA+vt2T3F1LQK4/OAtyqfh+uNyYfO23e3O9z3X/7cXPProfDkUnv8B);lineShape=1;fontSize=16;" parent="AHvvxaR7__jQoDVLhSC6-44" vertex="1">
          <mxGeometry x="7.8234010071412285" y="49.43382548290788" width="64.91116733942381" height="5.832596917338378" as="geometry" />
        </mxCell>
        <mxCell id="AHvvxaR7__jQoDVLhSC6-55" value="crea" style="rhombus;whiteSpace=wrap;html=1;fontSize=16;" parent="WIyWlLk6GJQsqaUBKTNV-1" vertex="1">
          <mxGeometry x="590" y="1090" width="80" height="80" as="geometry" />
        </mxCell>
        <mxCell id="AHvvxaR7__jQoDVLhSC6-56" value="" style="edgeStyle=none;curved=1;rounded=0;orthogonalLoop=1;jettySize=auto;html=1;fontSize=12;endArrow=none;startSize=14;endSize=14;sourcePerimeterSpacing=8;" parent="WIyWlLk6GJQsqaUBKTNV-1" source="AHvvxaR7__jQoDVLhSC6-45" target="AHvvxaR7__jQoDVLhSC6-55" edge="1">
          <mxGeometry relative="1" as="geometry">
            <mxPoint x="630" y="1262" as="sourcePoint" />
            <mxPoint x="630" y="994" as="targetPoint" />
          </mxGeometry>
        </mxCell>
        <mxCell id="AHvvxaR7__jQoDVLhSC6-57" value="1-N" style="text;html=1;align=center;verticalAlign=middle;resizable=0;points=[];autosize=1;strokeColor=none;fillColor=none;fontSize=16;" parent="WIyWlLk6GJQsqaUBKTNV-1" vertex="1">
          <mxGeometry x="633.3" y="990" width="50" height="30" as="geometry" />
        </mxCell>
        <mxCell id="AHvvxaR7__jQoDVLhSC6-58" style="edgeStyle=none;curved=1;rounded=0;orthogonalLoop=1;jettySize=auto;html=1;entryX=0.5;entryY=0;entryDx=0;entryDy=0;fontSize=12;endArrow=open;startSize=14;endSize=14;sourcePerimeterSpacing=8;targetPerimeterSpacing=8;" parent="WIyWlLk6GJQsqaUBKTNV-1" source="zkfFHV4jXpPFQw0GAbJ--6" target="AHvvxaR7__jQoDVLhSC6-55" edge="1">
          <mxGeometry relative="1" as="geometry" />
        </mxCell>
        <mxCell id="AHvvxaR7__jQoDVLhSC6-59" value="Categoria-ODC" style="swimlane;fontStyle=0;align=center;verticalAlign=top;childLayout=stackLayout;horizontal=1;startSize=26;horizontalStack=0;resizeParent=1;resizeLast=0;collapsible=1;marginBottom=0;rounded=0;shadow=0;strokeWidth=1;" parent="WIyWlLk6GJQsqaUBKTNV-1" vertex="1">
          <mxGeometry x="334" y="140" width="160" height="130" as="geometry">
            <mxRectangle x="550" y="140" width="160" height="26" as="alternateBounds" />
          </mxGeometry>
        </mxCell>
        <mxCell id="AHvvxaR7__jQoDVLhSC6-60" value="codCategoria" style="text;align=left;verticalAlign=top;spacingLeft=4;spacingRight=4;overflow=hidden;rotatable=0;points=[[0,0.5],[1,0.5]];portConstraint=eastwest;" parent="AHvvxaR7__jQoDVLhSC6-59" vertex="1">
          <mxGeometry y="26" width="160" height="26" as="geometry" />
        </mxCell>
        <mxCell id="AHvvxaR7__jQoDVLhSC6-61" value="nombre" style="text;align=left;verticalAlign=top;spacingLeft=4;spacingRight=4;overflow=hidden;rotatable=0;points=[[0,0.5],[1,0.5]];portConstraint=eastwest;rounded=0;shadow=0;html=0;" parent="AHvvxaR7__jQoDVLhSC6-59" vertex="1">
          <mxGeometry y="52" width="160" height="26" as="geometry" />
        </mxCell>
        <mxCell id="AHvvxaR7__jQoDVLhSC6-62" value="descripcion" style="text;align=left;verticalAlign=top;spacingLeft=4;spacingRight=4;overflow=hidden;rotatable=0;points=[[0,0.5],[1,0.5]];portConstraint=eastwest;rounded=0;shadow=0;html=0;" parent="AHvvxaR7__jQoDVLhSC6-59" vertex="1">
          <mxGeometry y="78" width="160" height="26" as="geometry" />
        </mxCell>
        <mxCell id="AHvvxaR7__jQoDVLhSC6-63" value="dineroInvertido" style="text;align=left;verticalAlign=top;spacingLeft=4;spacingRight=4;overflow=hidden;rotatable=0;points=[[0,0.5],[1,0.5]];portConstraint=eastwest;rounded=0;shadow=0;html=0;" parent="AHvvxaR7__jQoDVLhSC6-59" vertex="1">
          <mxGeometry y="104" width="160" height="26" as="geometry" />
        </mxCell>
        <mxCell id="AHvvxaR7__jQoDVLhSC6-67" value="pertenece" style="rhombus;whiteSpace=wrap;html=1;fontSize=16;" parent="WIyWlLk6GJQsqaUBKTNV-1" vertex="1">
          <mxGeometry x="560.93" y="218" width="99.07" height="80" as="geometry" />
        </mxCell>
        <mxCell id="AHvvxaR7__jQoDVLhSC6-69" value="" style="edgeStyle=none;curved=1;rounded=0;orthogonalLoop=1;jettySize=auto;html=1;entryX=0;entryY=0;entryDx=0;entryDy=0;fontSize=12;endArrow=none;startSize=14;endSize=14;sourcePerimeterSpacing=8;exitX=1;exitY=0.5;exitDx=0;exitDy=0;" parent="WIyWlLk6GJQsqaUBKTNV-1" source="AHvvxaR7__jQoDVLhSC6-62" target="AHvvxaR7__jQoDVLhSC6-67" edge="1">
          <mxGeometry relative="1" as="geometry">
            <mxPoint x="494" y="231" as="sourcePoint" />
            <mxPoint x="649" y="370" as="targetPoint" />
          </mxGeometry>
        </mxCell>
        <mxCell id="AHvvxaR7__jQoDVLhSC6-71" value="1-N" style="text;html=1;align=center;verticalAlign=middle;resizable=0;points=[];autosize=1;strokeColor=none;fillColor=none;fontSize=16;" parent="WIyWlLk6GJQsqaUBKTNV-1" vertex="1">
          <mxGeometry x="540" y="290" width="50" height="30" as="geometry" />
        </mxCell>
        <mxCell id="AHvvxaR7__jQoDVLhSC6-72" value="" style="shape=stencil(lVjLctswDPwaXzEkQRLkOU3/IzNxGk/TOOOkr78vWJeKQFqb+iZbXArAYpeQdnzz+nj3st8F9/p2On7d/zzcvz3u+NMuhMPz4/50eNOrHd/u+ObheNp/OR2/P9+ff7/ctZXt6tvxR9vh1xlXM4XYUMH9Pv+THTH//efzGfB0eF4DmII3gCQU3DagVGr31oBICQEihWIBTFIAwF14QvTbAElU2QISuQAAvgewALRuaRuQhVKygEIF5JCZqlgemBjk0GjKFlAoxW2ARhwt0xLJAR5SoDwAKnHdBsTSee2Aos2CAJHE8lAyFRBSdJRt0tWTB93KmZIta43kQUgcxiqpQipojSD99gLATAemOORQuwYvAnztEa8AjACJwvSEf8+8DHCdphVABPBA0fLmnYO9xOT8WCRGEZEMLDBlsL8jsRmXDGvqyNv1ItAAluwWseVuIRvreTJJtL8nZ+1CtYRcOJC39Ym+V2Cj/tHKgAvkK1K18bNQRH43NpAq1YMG0t2sn8ZEBawvveFXR0IF8ZRuIys3TaA+03rRIwe47xSPOh3ia8pXfQudUFM9q5C/hi8VcAH9NvVD8yBQ/6nfaqIE4p/6uZTr9NLOdKjfQY+iO0D9DnrPH+0/+EnSjED8qr5Bv9xPqv/zQ9VjBfWcDFf1iPi6dv3U/7qewSHmVU5hBCDBeBkZUABSvJZ0GExZ8EGsHTnlLOCoD7VbwgoAhwkeu4IjZaQyoWxlrOMFlPHiCh2gQcIJKlG2jafUo6Sjjg4DIEAlqNE6y7QvcArUObPYpFuzoLNDhzprjtqNIKIce6ctYoM1yjo/2ZQ9nD1kohnPNlI6p+/r0axSArGM8SBt5n60LJT1wfzyG5qa3TB8dEYur4/j/t73d7zLAJkACU4HOuw5y7DaAbJTBQzzn8fnWZuILQcBG3AbcAel4YlLAdV2EeO2Xo3EC6LirGt3xKWxY38b2QIMDqbyjqCVFOCmV+uCiRgGl/a2j+oq/cVhAVQ4eSlgOAqbH6Duu/qLxccAvXj/QPJweHo6f19Z3x8/qOhf548xfPsH);lineShape=1;fontSize=16;" parent="WIyWlLk6GJQsqaUBKTNV-1" vertex="1">
          <mxGeometry x="343.18444097338283" y="187.3024111945915" width="69.0351109142157" height="9.758354118689795" as="geometry" />
        </mxCell>
        <mxCell id="gHI2CfWQXYoVdtYrl61a-3" value="estado" style="text;align=left;verticalAlign=top;spacingLeft=4;spacingRight=4;overflow=hidden;rotatable=0;points=[[0,0.5],[1,0.5]];portConstraint=eastwest;" vertex="1" parent="WIyWlLk6GJQsqaUBKTNV-1">
          <mxGeometry x="569" y="626.83" width="160" height="26" as="geometry" />
        </mxCell>
        <mxCell id="gHI2CfWQXYoVdtYrl61a-5" value="" style="group" vertex="1" connectable="0" parent="WIyWlLk6GJQsqaUBKTNV-1">
          <mxGeometry x="350" y="1270" width="160" height="220" as="geometry" />
        </mxCell>
        <mxCell id="gHI2CfWQXYoVdtYrl61a-6" value="MensajeRecibido" style="swimlane;fontStyle=0;align=center;verticalAlign=top;childLayout=stackLayout;horizontal=1;startSize=26;horizontalStack=0;resizeParent=1;resizeLast=0;collapsible=1;marginBottom=0;rounded=0;shadow=0;strokeWidth=1;" vertex="1" parent="gHI2CfWQXYoVdtYrl61a-5">
          <mxGeometry width="160" height="220" as="geometry">
            <mxRectangle x="130" y="380" width="160" height="26" as="alternateBounds" />
          </mxGeometry>
        </mxCell>
        <mxCell id="gHI2CfWQXYoVdtYrl61a-7" value="codMensaje" style="text;align=left;verticalAlign=top;spacingLeft=4;spacingRight=4;overflow=hidden;rotatable=0;points=[[0,0.5],[1,0.5]];portConstraint=eastwest;" vertex="1" parent="gHI2CfWQXYoVdtYrl61a-6">
          <mxGeometry y="26" width="160" height="26" as="geometry" />
        </mxCell>
        <mxCell id="gHI2CfWQXYoVdtYrl61a-8" value="codUsuarioEmisor" style="text;align=left;verticalAlign=top;spacingLeft=4;spacingRight=4;overflow=hidden;rotatable=0;points=[[0,0.5],[1,0.5]];portConstraint=eastwest;rounded=0;shadow=0;html=0;" vertex="1" parent="gHI2CfWQXYoVdtYrl61a-6">
          <mxGeometry y="52" width="160" height="26" as="geometry" />
        </mxCell>
        <mxCell id="gHI2CfWQXYoVdtYrl61a-9" value="codUsuarioReceptor" style="text;align=left;verticalAlign=top;spacingLeft=4;spacingRight=4;overflow=hidden;rotatable=0;points=[[0,0.5],[1,0.5]];portConstraint=eastwest;" vertex="1" parent="gHI2CfWQXYoVdtYrl61a-6">
          <mxGeometry y="78" width="160" height="26" as="geometry" />
        </mxCell>
        <mxCell id="gHI2CfWQXYoVdtYrl61a-10" value="asunto" style="text;align=left;verticalAlign=top;spacingLeft=4;spacingRight=4;overflow=hidden;rotatable=0;points=[[0,0.5],[1,0.5]];portConstraint=eastwest;" vertex="1" parent="gHI2CfWQXYoVdtYrl61a-6">
          <mxGeometry y="104" width="160" height="26" as="geometry" />
        </mxCell>
        <mxCell id="gHI2CfWQXYoVdtYrl61a-11" value="mensaje" style="text;align=left;verticalAlign=top;spacingLeft=4;spacingRight=4;overflow=hidden;rotatable=0;points=[[0,0.5],[1,0.5]];portConstraint=eastwest;" vertex="1" parent="gHI2CfWQXYoVdtYrl61a-6">
          <mxGeometry y="130" width="160" height="26" as="geometry" />
        </mxCell>
        <mxCell id="gHI2CfWQXYoVdtYrl61a-12" value="estado" style="text;align=left;verticalAlign=top;spacingLeft=4;spacingRight=4;overflow=hidden;rotatable=0;points=[[0,0.5],[1,0.5]];portConstraint=eastwest;" vertex="1" parent="gHI2CfWQXYoVdtYrl61a-6">
          <mxGeometry y="156" width="160" height="30" as="geometry" />
        </mxCell>
        <mxCell id="gHI2CfWQXYoVdtYrl61a-13" value="fecha" style="text;align=left;verticalAlign=top;spacingLeft=4;spacingRight=4;overflow=hidden;rotatable=0;points=[[0,0.5],[1,0.5]];portConstraint=eastwest;" vertex="1" parent="gHI2CfWQXYoVdtYrl61a-6">
          <mxGeometry y="186" width="160" height="30" as="geometry" />
        </mxCell>
        <mxCell id="gHI2CfWQXYoVdtYrl61a-14" value="" style="shape=stencil(lVjLciIxDPwarirLT/mczf5HqkIWallIEfb196tZygOWmQ7cyEQ9Y0vdLdmr8PSxeXlfr7z7OB0P39e/t6+nzSp8WXm/3W/Wx+1Jf63C8yo8vR2O62/Hw8/96/nv95cpcvr14/BresOfMy4Quwnk3d/zA0eu/n/w9Ry+2+6vwhOV3IUHCrwcXimWLjxTjMvh7Kn2q2GmBN7PhXz/AU6U8zLAMwUDqPALumPOFhAcAMzvmwFCUZYBIZDUHlCogCwFIVcsABUtMokBaB0QIFESm9ZaAKC2910BEgCkSG74QgwAoJX2PSBS8suA7IZKM2WQ1hwo9pWWRq7b8YVqNFpwYEGFKRpiUEkgPpLY+AyYWnQ9pgaUwH7FUzQZpQiILZl8NPEM1iOVajLWImC/NbfXXeIzYEQtFPr3z+5xO16sGc3udDtedR6s8pG3KECMOXqYUXZqtr3fxdw2tfSJ0q9Jae4wwOis+PZkKUvcs0K4OeBS2UyZ5ZM9qEP3PJUCiVSjLZxo10FLCs1K5k0naMHVUzZ9KuK+5sn3pU5M7iFAyNBRxyWpvWS0h2HT2k1RZxvTGrHehrqpntGCBmJg/x2Zl0lQ/EDtqUmhDQzi8aUt8W598oMWkBI07dFksmD1DC5WhNJDNimpzXx3+rDqMyCqPgxQRxEL8KB16r+jAWD1qEGYUisgg4mn1NYrrwDIMkq2cpsAqJ3rpF0sIAEuKRGKt1lKoHDqWb5na8UOkLn1jhmQoOR0CMv9kpSOSHI3xryLpu6cJC+aunNWVUBEgGEanjbx0LytgIAAw0SvIkTsm84MpnIZ5tUne2yr2PumWarXqPYLpFE9IaShrRcgCA62cDo4CJonSUyTZqiH1Kbr2Sk1CaAKnkLPCx2VkKK5Hbpm6xbYD9keDNXqGRiAsw09OfJAna4dM+feE1uDXIg3LA3YVIfepiysOL6vr2YY9XM3jM+pHWgW4othKAznlrw5nXAAm7l4NYwA+vt2T3F1LQK4/OAtyqfh+uNyYfO23e3O9z3X/7cXPProfDkUnv8B);lineShape=1;fontSize=16;" vertex="1" parent="gHI2CfWQXYoVdtYrl61a-5">
          <mxGeometry x="7.8234010071412285" y="49.43382548290788" width="64.91116733942381" height="5.832596917338378" as="geometry" />
        </mxCell>
        <mxCell id="gHI2CfWQXYoVdtYrl61a-17" style="edgeStyle=orthogonalEdgeStyle;rounded=0;orthogonalLoop=1;jettySize=auto;html=1;entryX=0.5;entryY=0;entryDx=0;entryDy=0;" edge="1" parent="WIyWlLk6GJQsqaUBKTNV-1" source="gHI2CfWQXYoVdtYrl61a-15" target="gHI2CfWQXYoVdtYrl61a-6">
          <mxGeometry relative="1" as="geometry" />
        </mxCell>
        <mxCell id="gHI2CfWQXYoVdtYrl61a-15" value="recibe" style="rhombus;whiteSpace=wrap;html=1;fontSize=16;" vertex="1" parent="WIyWlLk6GJQsqaUBKTNV-1">
          <mxGeometry x="400" y="1090" width="80" height="80" as="geometry" />
        </mxCell>
        <mxCell id="gHI2CfWQXYoVdtYrl61a-16" style="edgeStyle=orthogonalEdgeStyle;rounded=0;orthogonalLoop=1;jettySize=auto;html=1;entryX=0.5;entryY=0;entryDx=0;entryDy=0;" edge="1" parent="WIyWlLk6GJQsqaUBKTNV-1" source="AHvvxaR7__jQoDVLhSC6-28" target="gHI2CfWQXYoVdtYrl61a-15">
          <mxGeometry relative="1" as="geometry" />
        </mxCell>
      </root>
    </mxGraphModel>
  </diagram>
</mxfile>
